<svg width="129" height="128" viewBox="0 0 129 128" fill="none" xmlns="http://www.w3.org/2000/svg">
<path d="M90.0703 93.4844L40.3438 93.4453C37.375 93.4453 34.6276 92.9635 32.1016 92C29.5755 91.0365 27.375 89.7083 25.5 88.0156C23.651 86.3229 22.2057 84.3568 21.1641 82.1172C20.1224 79.8516 19.6016 77.4297 19.6016 74.8516C19.6016 71.9349 20.1484 69.2917 21.2422 66.9219C22.362 64.5521 23.9115 62.625 25.8906 61.1406C27.8958 59.6562 30.2266 58.7708 32.8828 58.4844C32.8828 55.9844 33.4167 53.7188 34.4844 51.6875C35.5781 49.6562 37.0234 47.9896 38.8203 46.6875C40.6172 45.3854 42.5964 44.5521 44.7578 44.1875C46.9453 43.8229 49.1198 44.0443 51.2812 44.8516C52.5833 42.638 54.2109 40.6068 56.1641 38.7578C58.1432 36.8828 60.4479 35.3984 63.0781 34.3047C65.7344 33.1849 68.7422 32.625 72.1016 32.625C75.6953 32.625 79.0417 33.3151 82.1406 34.6953C85.2396 36.0495 87.9479 37.9766 90.2656 40.4766C92.5833 42.9505 94.3672 45.8672 95.6172 49.2266C96.8672 52.5599 97.4401 56.2188 97.3359 60.2031C99.7839 61.0625 101.854 62.3255 103.547 63.9922C105.24 65.6328 106.529 67.5469 107.414 69.7344C108.299 71.8958 108.742 74.2005 108.742 76.6484C108.742 79.0182 108.26 81.2318 107.297 83.2891C106.359 85.3203 105.031 87.1042 103.312 88.6406C101.62 90.151 99.6406 91.3359 97.375 92.1953C95.1094 93.0547 92.6745 93.4844 90.0703 93.4844ZM66.75 82.2734C69.4323 82.2734 71.8672 81.6354 74.0547 80.3594C76.2422 79.0573 77.974 77.3125 79.25 75.125C80.526 72.9115 81.1641 70.4635 81.1641 67.7812C81.1641 67.3385 81.0078 66.974 80.6953 66.6875C80.4089 66.401 80.0573 66.2578 79.6406 66.2578C79.1979 66.2578 78.8203 66.401 78.5078 66.6875C78.2214 66.974 78.0781 67.3385 78.0781 67.7812C78.0781 69.8906 77.5703 71.8047 76.5547 73.5234C75.5391 75.2422 74.1719 76.6224 72.4531 77.6641C70.7604 78.6797 68.8594 79.1875 66.75 79.1875C64.6406 79.1875 62.7266 78.6797 61.0078 77.6641C59.2891 76.6224 57.9219 75.2422 56.9062 73.5234C55.9167 71.8047 55.4219 69.8646 55.4219 67.7031C55.4219 64.9427 56.2422 62.5469 57.8828 60.5156C59.5495 58.4583 61.6589 57.1432 64.2109 56.5703V62C64.2109 62.5729 64.4453 62.9505 64.9141 63.1328C65.3828 63.2891 65.8385 63.1979 66.2812 62.8594L73.5859 56.8828C74.0286 56.4922 74.237 56.0625 74.2109 55.5938C74.2109 55.099 74.0026 54.6823 73.5859 54.3438L66.2812 48.4062C65.8385 48.0677 65.3828 47.9766 64.9141 48.1328C64.4453 48.2891 64.2109 48.6667 64.2109 49.2656V53.3672C61.9193 53.7578 59.875 54.6302 58.0781 55.9844C56.2812 57.3385 54.862 59.0312 53.8203 61.0625C52.8047 63.0938 52.2969 65.3073 52.2969 67.7031C52.2969 70.4375 52.9349 72.9115 54.2109 75.125C55.513 77.3125 57.2578 79.0573 59.4453 80.3594C61.6328 81.6354 64.0677 82.2734 66.75 82.2734Z" fill="#242424"/>
</svg>
