<svg width="129" height="128" viewBox="0 0 129 128" fill="none" xmlns="http://www.w3.org/2000/svg">
<path d="M23.5391 75.3203C25.7005 77.0911 28.3698 78.7448 31.5469 80.2812C34.724 81.7917 38.0833 83.0156 41.625 83.9531C45.1667 84.8906 48.5651 85.3594 51.8203 85.3594C55.8568 85.3594 59.1771 84.9167 61.7812 84.0312C64.4115 83.1458 66.8724 82.0781 69.1641 80.8281C61.1693 74.3438 54.0729 67.7031 47.875 60.9062C41.7031 54.0833 36.2214 47.1823 31.4297 40.2031C36.4297 44.7083 41.612 48.9922 46.9766 53.0547C52.3672 57.1172 57.9531 60.9844 63.7344 64.6562C59.4375 59.8906 55.362 55.1901 51.5078 50.5547C47.6797 45.8932 44.138 41.0495 40.8828 36.0234C42.4974 37.7682 44.5417 39.7734 47.0156 42.0391C49.4896 44.3047 52.1849 46.6745 55.1016 49.1484C58.0182 51.6224 60.974 54.0573 63.9688 56.4531C66.9896 58.849 69.8802 61.0365 72.6406 63.0156C75.401 64.9688 77.849 66.5573 79.9844 67.7812C80.4792 66.5833 80.9609 64.8906 81.4297 62.7031C81.9245 60.5156 82.1719 58.3151 82.1719 56.1016C82.1719 52.0911 81.651 48.4323 80.6094 45.125C79.5938 41.8177 78.3438 38.875 76.8594 36.2969C75.401 33.6927 73.9948 31.4271 72.6406 29.5C77.5365 32.4427 81.612 35.7109 84.8672 39.3047C88.1484 42.8724 90.7526 46.5182 92.6797 50.2422C94.6328 53.9661 96.026 57.5469 96.8594 60.9844C97.6927 64.3958 98.1094 67.4036 98.1094 70.0078C98.1094 71.1797 98.0312 72.6641 97.875 74.4609C97.7188 76.2578 97.3151 78.0417 96.6641 79.8125C98.6172 82.2083 100.076 84.513 101.039 86.7266C102.029 88.9401 102.693 90.9323 103.031 92.7031C103.37 94.5 103.539 95.9844 103.539 97.1562C103.539 97.7552 103.5 98.3021 103.422 98.7969C103.344 99.2917 103.253 99.7344 103.148 100.125C102.992 100.646 102.81 100.867 102.602 100.789C102.393 100.711 102.224 100.529 102.094 100.242C101.755 99.6693 101.208 98.888 100.453 97.8984C99.6979 96.9349 98.6302 96.0625 97.25 95.2812C95.8698 94.5 94.0859 94.1094 91.8984 94.1094C89.9193 94.1094 88.1224 94.4219 86.5078 95.0469C84.8932 95.6979 83.2005 96.4401 81.4297 97.2734C79.6849 98.1068 77.6406 98.8359 75.2969 99.4609C72.9792 100.112 70.1276 100.438 66.7422 100.438C62.4714 100.438 58.4349 99.8906 54.6328 98.7969C50.8307 97.7292 47.3021 96.2839 44.0469 94.4609C40.7917 92.6641 37.8359 90.6589 35.1797 88.4453C32.5495 86.2318 30.2578 83.9922 28.3047 81.7266C26.3516 79.4349 24.763 77.2995 23.5391 75.3203Z" fill="#242424"/>
</svg>
