<svg width="129" height="128" viewBox="0 0 129 128" fill="none" xmlns="http://www.w3.org/2000/svg">
<path d="M30.4141 65.3203C30.4141 64.1745 30.7526 63.224 31.4297 62.4688C32.1068 61.6875 33.1224 61.1797 34.4766 60.9453C36.7943 60.5286 38.4479 59.6562 39.4375 58.3281C40.4531 57 40.9609 54.8906 40.9609 52V42.0781C40.9609 36.9479 42.1589 33.1458 44.5547 30.6719C46.9766 28.1979 50.6745 26.9609 55.6484 26.9609C56.5078 26.9609 57.224 27.0391 57.7969 27.1953C58.5521 27.4557 59.112 27.8464 59.4766 28.3672C59.8672 28.862 60.0625 29.474 60.0625 30.2031C60.0625 31.6615 59.4375 32.5859 58.1875 32.9766C58.0052 33.0547 57.7839 33.1198 57.5234 33.1719C57.263 33.1979 56.9896 33.237 56.7031 33.2891C53.6823 33.4974 51.5469 34.3307 50.2969 35.7891C49.0469 37.2214 48.4219 39.6042 48.4219 42.9375V54.7734C48.4219 57.9245 47.6016 60.3854 45.9609 62.1562C44.3203 63.9271 42.0286 64.9557 39.0859 65.2422C38.9557 65.2682 38.8906 65.3203 38.8906 65.3984C38.8906 65.4766 38.9557 65.5156 39.0859 65.5156C42.0286 65.8021 44.3203 66.8307 45.9609 68.6016C47.6016 70.3724 48.4219 72.8333 48.4219 75.9844V87.8203C48.4219 91.1276 49.0469 93.5104 50.2969 94.9688C51.5469 96.4271 53.6823 97.2734 56.7031 97.5078C56.9115 97.5339 57.1198 97.5599 57.3281 97.5859C57.5365 97.638 57.7318 97.6901 57.9141 97.7422C59.3464 98.0807 60.0625 99.0182 60.0625 100.555C60.0625 101.258 59.8672 101.857 59.4766 102.352C59.112 102.872 58.5781 103.263 57.875 103.523C57.3021 103.706 56.6771 103.797 56 103.797C50.8438 103.797 47.0417 102.573 44.5938 100.125C42.1719 97.6771 40.9609 93.862 40.9609 88.6797V78.7969C40.9609 75.8542 40.4531 73.7188 39.4375 72.3906C38.4479 71.0625 36.7943 70.2031 34.4766 69.8125C33.1224 69.5781 32.1068 69.0703 31.4297 68.2891C30.7526 67.4818 30.4141 66.4922 30.4141 65.3203ZM101.82 65.3203C101.82 66.4922 101.482 67.4818 100.805 68.2891C100.128 69.0703 99.112 69.5781 97.7578 69.8125C95.4661 70.2031 93.8125 71.0625 92.7969 72.3906C91.8073 73.7188 91.3125 75.8542 91.3125 78.7969V88.6797C91.3125 93.862 90.0885 97.6771 87.6406 100.125C85.2188 102.573 81.4167 103.797 76.2344 103.797C75.5833 103.797 74.9583 103.706 74.3594 103.523C73.6823 103.315 73.1484 102.951 72.7578 102.43C72.3672 101.909 72.1719 101.284 72.1719 100.555C72.1719 99.7734 72.3542 99.1484 72.7188 98.6797C73.0833 98.2109 73.6302 97.8984 74.3594 97.7422C74.5417 97.6901 74.724 97.638 74.9062 97.5859C75.1146 97.5599 75.3229 97.5339 75.5312 97.5078C78.5781 97.2734 80.7266 96.4271 81.9766 94.9688C83.2266 93.5104 83.8516 91.1276 83.8516 87.8203V75.9844C83.8516 72.8073 84.6719 70.2812 86.3125 68.4062C87.9531 66.5312 90.2448 65.5677 93.1875 65.5156C93.2917 65.5156 93.3438 65.4766 93.3438 65.3984C93.3438 65.3203 93.2917 65.2682 93.1875 65.2422C90.2448 65.2161 87.9531 64.2526 86.3125 62.3516C84.6719 60.4505 83.8516 57.9245 83.8516 54.7734V42.9375C83.8516 39.6042 83.2135 37.1953 81.9375 35.7109C80.6875 34.2266 78.5521 33.4193 75.5312 33.2891C75.2448 33.237 74.9714 33.1979 74.7109 33.1719C74.4505 33.1198 74.2292 33.0547 74.0469 32.9766C72.7969 32.5339 72.1719 31.6094 72.1719 30.2031C72.1719 29.474 72.3542 28.862 72.7188 28.3672C73.0833 27.8464 73.6562 27.4557 74.4375 27.1953C75.0104 27.0391 75.7266 26.9609 76.5859 26.9609C81.5859 26.9609 85.2839 28.1979 87.6797 30.6719C90.1016 33.1458 91.3125 36.9479 91.3125 42.0781V52C91.3125 54.8906 91.8073 57 92.7969 58.3281C93.8125 59.6562 95.4661 60.5286 97.7578 60.9453C99.112 61.1797 100.128 61.6875 100.805 62.4688C101.482 63.224 101.82 64.1745 101.82 65.3203Z" fill="#242424"/>
</svg>
