<svg width="129" height="128" viewBox="0 0 129 128" fill="none" xmlns="http://www.w3.org/2000/svg">
<path d="M42.1016 93.5234V37.2344C42.1016 34.3698 42.9219 32.1302 44.5625 30.5156C46.2031 28.901 48.4948 28.0938 51.4375 28.0938H76.2031C79.1458 28.0938 81.4245 28.901 83.0391 30.5156C84.6797 32.1302 85.5 34.3698 85.5 37.2344V93.5234C85.5 96.4141 84.6797 98.6536 83.0391 100.242C81.4245 101.857 79.1458 102.664 76.2031 102.664H51.4375C48.4948 102.664 46.2031 101.857 44.5625 100.242C42.9219 98.6536 42.1016 96.4141 42.1016 93.5234ZM45.8516 93.0938C45.8516 95.0729 46.3333 96.5443 47.2969 97.5078C48.2865 98.4714 49.7969 98.9531 51.8281 98.9531H75.8125C77.8177 98.9531 79.3151 98.4714 80.3047 97.5078C81.2943 96.5443 81.7891 95.0729 81.7891 93.0938V37.6641C81.7891 35.6849 81.2943 34.2135 80.3047 33.25C79.3151 32.2865 77.8177 31.8047 75.8125 31.8047H51.8281C49.7969 31.8047 48.2865 32.2865 47.2969 33.25C46.3333 34.2135 45.8516 35.6849 45.8516 37.6641V93.0938ZM57.5312 77.7422C55.5 77.7422 54.4844 76.6484 54.4844 74.4609V64.3047C54.4844 62.4036 55.2786 61.3229 56.8672 61.0625V58.9141C56.8672 56.6484 57.5052 54.8125 58.7812 53.4062C60.0833 52 61.776 51.2969 63.8594 51.2969C65.9427 51.2969 67.6224 52 68.8984 53.4062C70.2005 54.8125 70.8516 56.6484 70.8516 58.9141V61.0625C72.4401 61.349 73.2344 62.4297 73.2344 64.3047V74.4609C73.2344 76.6484 72.1927 77.7422 70.1094 77.7422H57.5312ZM59.6406 61.0234H68.0781V58.7188C68.0781 57.3385 67.6875 56.2057 66.9062 55.3203C66.151 54.4349 65.1354 53.9922 63.8594 53.9922C62.5573 53.9922 61.5286 54.4349 60.7734 55.3203C60.0182 56.2057 59.6406 57.3385 59.6406 58.7188V61.0234Z" fill="#242424"/>
</svg>
