<svg width="129" height="128" viewBox="0 0 129 128" fill="none" xmlns="http://www.w3.org/2000/svg">
<path d="M47.9844 43.1719H79.8203C80.263 43.1719 80.6406 43.0156 80.9531 42.7031C81.2656 42.3906 81.4219 42.013 81.4219 41.5703C81.4219 41.1276 81.2656 40.763 80.9531 40.4766C80.6406 40.1641 80.263 40.0078 79.8203 40.0078H47.9844C47.4896 40.0078 47.0859 40.1641 46.7734 40.4766C46.487 40.763 46.3438 41.1276 46.3438 41.5703C46.3438 42.013 46.487 42.3906 46.7734 42.7031C47.0859 43.0156 47.4896 43.1719 47.9844 43.1719ZM47.9844 53.5625H67.8672C68.3359 53.5625 68.7266 53.4193 69.0391 53.1328C69.3516 52.8203 69.5078 52.4297 69.5078 51.9609C69.5078 51.5443 69.3516 51.1797 69.0391 50.8672C68.7266 50.5547 68.3359 50.3984 67.8672 50.3984H47.9844C47.4896 50.3984 47.0859 50.5547 46.7734 50.8672C46.487 51.1797 46.3438 51.5443 46.3438 51.9609C46.3438 52.4297 46.487 52.8203 46.7734 53.1328C47.0859 53.4193 47.4896 53.5625 47.9844 53.5625ZM48.6094 94.3828H78.5312C81.8385 94.3828 83.4922 92.7422 83.4922 89.4609V65.75C83.4922 62.4688 81.8385 60.8281 78.5312 60.8281H48.6094C46.9688 60.8281 45.7318 61.2318 44.8984 62.0391C44.0651 62.8464 43.6484 64.0833 43.6484 65.75V89.4609C43.6484 91.1016 44.0651 92.3255 44.8984 93.1328C45.7318 93.9661 46.9688 94.3828 48.6094 94.3828ZM33.4141 94.1484V36.7266C33.4141 33.2891 34.2865 30.6979 36.0312 28.9531C37.776 27.1823 40.3542 26.2969 43.7656 26.2969H83.3359C86.7734 26.2969 89.3516 27.1823 91.0703 28.9531C92.8151 30.6979 93.6875 33.2891 93.6875 36.7266V94.1484C93.6875 97.5859 92.8151 100.177 91.0703 101.922C89.3516 103.667 86.7734 104.539 83.3359 104.539H43.7656C40.3542 104.539 37.776 103.667 36.0312 101.922C34.2865 100.177 33.4141 97.5859 33.4141 94.1484Z" fill="#242424"/>
</svg>
