<svg width="129" height="128" viewBox="0 0 129 128" fill="none" xmlns="http://www.w3.org/2000/svg">
<path d="M82.9922 103.289C81.2474 104.096 79.5156 104.5 77.7969 104.5C75.8177 104.5 73.8646 104.031 71.9375 103.094C70.0104 102.156 68.0443 100.945 66.0391 99.4609C63.9818 97.9245 61.8333 96.2578 59.5938 94.4609C57.3542 92.6901 54.9583 91.1797 52.4062 89.9297C49.8021 88.6797 47.1198 87.7552 44.3594 87.1562C41.625 86.5312 39.0339 85.9062 36.5859 85.2812C33.0443 84.3698 30.0625 83.1328 27.6406 81.5703C25.2448 79.9818 23.6823 77.599 22.9531 74.4219C22.224 71.2708 22.6016 68.4453 24.0859 65.9453C25.5703 63.4453 27.7057 61.0365 30.4922 58.7188C32.4453 57.0781 34.5286 55.3854 36.7422 53.6406C38.9818 51.8698 41 49.8516 42.7969 47.5859C44.5677 45.3464 46.0521 42.9635 47.25 40.4375C48.4479 37.8854 49.6458 35.4896 50.8438 33.25C52.4844 30.0208 54.3464 27.4167 56.4297 25.4375C58.513 23.4323 61.1693 22.4297 64.3984 22.4297C67.6536 22.4297 70.3229 23.4323 72.4062 25.4375C74.4896 27.4167 76.3646 30.0208 78.0312 33.25C79.2292 35.4896 80.4141 37.8854 81.5859 40.4375C82.7578 42.9896 84.2422 45.3724 86.0391 47.5859C87.862 49.8255 89.8802 51.8307 92.0938 53.6016C94.3073 55.3724 96.3906 57.0781 98.3438 58.7188C101.156 61.0365 103.292 63.4453 104.75 65.9453C106.234 68.4453 106.625 71.2708 105.922 74.4219C105.193 77.599 103.604 79.9818 101.156 81.5703C98.7344 83.1328 95.7526 84.3698 92.2109 85.2812C89.7891 85.9062 87.1979 86.5312 84.4375 87.1562C81.7031 87.7552 79.0339 88.6797 76.4297 89.9297C73.8776 91.1797 71.4818 92.6901 69.2422 94.4609C67.0026 96.2578 64.8542 97.9115 62.7969 99.4219C60.7656 100.932 58.7865 102.156 56.8594 103.094C54.9323 104.031 52.9922 104.5 51.0391 104.5C49.3203 104.5 47.5885 104.096 45.8438 103.289C42.901 101.883 40.9219 99.8255 39.9062 97.1172C38.9167 94.4089 38.3828 91.2318 38.3047 87.5859C38.1745 85.0599 38.1224 82.3776 38.1484 79.5391C38.2005 76.7005 37.9141 73.875 37.2891 71.0625C36.638 68.3021 35.6875 65.6458 34.4375 63.0938C33.1875 60.5417 32.0547 58.1068 31.0391 55.7891C29.5547 52.5078 28.6823 49.4349 28.4219 46.5703C28.1615 43.6797 29.0339 40.9453 31.0391 38.3672C33.0703 35.8411 35.5182 34.3828 38.3828 33.9922C41.2734 33.6016 44.5026 33.7708 48.0703 34.5C50.5443 35.0208 53.1615 35.6068 55.9219 36.2578C58.6823 36.8828 61.5078 37.1953 64.3984 37.1953C67.2891 37.1953 70.1146 36.8828 72.875 36.2578C75.6615 35.6068 78.3047 35.0208 80.8047 34.5C84.3464 33.7969 87.5495 33.6406 90.4141 34.0312C93.3047 34.3958 95.7656 35.8542 97.7969 38.4062C99.8281 40.9583 100.701 43.6797 100.414 46.5703C100.154 49.4349 99.2943 52.5078 97.8359 55.7891C96.7943 58.1068 95.6354 60.5417 94.3594 63.0938C93.1094 65.6458 92.1849 68.3021 91.5859 71.0625C90.9349 73.875 90.6224 76.7005 90.6484 79.5391C90.6745 82.3776 90.6484 85.0599 90.5703 87.5859C90.4661 91.2318 89.9062 94.4089 88.8906 97.1172C87.901 99.8255 85.9349 101.883 82.9922 103.289ZM80.6875 98.4453C82.0677 97.7682 83.0573 96.8698 83.6562 95.75C84.2552 94.6302 84.6458 93.3542 84.8281 91.9219C85.0104 90.4896 85.1276 89.0182 85.1797 87.5078C85.2578 84.7995 85.2969 81.9219 85.2969 78.875C85.3229 75.8281 85.6615 72.8203 86.3125 69.8516C86.9635 66.9609 87.9401 64.1484 89.2422 61.4141C90.5703 58.6536 91.8073 56.0104 92.9531 53.4844C93.526 52.0781 94.0339 50.7109 94.4766 49.3828C94.9453 48.0286 95.1406 46.7266 95.0625 45.4766C95.0104 44.2005 94.5026 42.9635 93.5391 41.7656C92.6016 40.5677 91.5208 39.7995 90.2969 39.4609C89.0729 39.1224 87.7448 39.0182 86.3125 39.1484C84.9062 39.2786 83.4609 39.487 81.9766 39.7734C79.2943 40.3203 76.4557 40.9323 73.4609 41.6094C70.4922 42.2865 67.4714 42.625 64.3984 42.625C61.3516 42.625 58.3307 42.2865 55.3359 41.6094C52.3411 40.9323 49.5156 40.3203 46.8594 39.7734C45.375 39.513 43.9167 39.3177 42.4844 39.1875C41.0781 39.0312 39.75 39.1354 38.5 39.5C37.276 39.8385 36.1953 40.5938 35.2578 41.7656C34.2943 42.9635 33.7865 44.2005 33.7344 45.4766C33.7083 46.7266 33.9167 48.0286 34.3594 49.3828C34.8281 50.7109 35.349 52.0781 35.9219 53.4844C37.0417 56.0104 38.2526 58.6536 39.5547 61.4141C40.8828 64.1484 41.8724 66.9479 42.5234 69.8125C43.2005 72.8073 43.5391 75.8281 43.5391 78.875C43.5391 81.9219 43.5781 84.7995 43.6562 87.5078C43.7083 89.0182 43.8255 90.4896 44.0078 91.9219C44.1901 93.3542 44.5807 94.6302 45.1797 95.75C45.8047 96.8698 46.7943 97.7682 48.1484 98.4453C49.5286 99.0964 50.8438 99.3047 52.0938 99.0703C53.3698 98.862 54.6068 98.3802 55.8047 97.625C57.0286 96.8698 58.2526 96.0625 59.4766 95.2031C61.638 93.5885 63.9297 91.8307 66.3516 89.9297C68.7995 88.0026 71.3646 86.401 74.0469 85.125C76.8333 83.7969 79.724 82.7812 82.7188 82.0781C85.7135 81.349 88.487 80.6719 91.0391 80.0469C92.4974 79.6562 93.9036 79.2266 95.2578 78.7578C96.612 78.263 97.7578 77.5859 98.6953 76.7266C99.6589 75.8672 100.31 74.6953 100.648 73.2109C100.987 71.7266 100.909 70.3984 100.414 69.2266C99.9193 68.0286 99.1641 66.9219 98.1484 65.9062C97.1589 64.8906 96.0911 63.901 94.9453 62.9375C92.8359 61.1667 90.5964 59.3307 88.2266 57.4297C85.8568 55.5286 83.7214 53.3802 81.8203 50.9844C79.9453 48.6146 78.3568 46.0755 77.0547 43.3672C75.7526 40.6589 74.4766 38.0938 73.2266 35.6719C72.4974 34.2917 71.7422 33.0156 70.9609 31.8438C70.2057 30.6458 69.3073 29.6823 68.2656 28.9531C67.224 28.1979 65.9349 27.8203 64.3984 27.8203C62.888 27.8203 61.599 28.1979 60.5312 28.9531C59.4896 29.6823 58.5781 30.6458 57.7969 31.8438C57.0417 33.0156 56.3125 34.2917 55.6094 35.6719C54.3594 38.0938 53.0833 40.6589 51.7812 43.3672C50.5052 46.0755 48.9036 48.6146 46.9766 50.9844C45.1016 53.3542 42.9792 55.5026 40.6094 57.4297C38.2396 59.3307 36 61.1667 33.8906 62.9375C32.7188 63.901 31.638 64.8906 30.6484 65.9062C29.6589 66.9219 28.9167 68.0286 28.4219 69.2266C27.9531 70.3984 27.888 71.7266 28.2266 73.2109C28.5651 74.6953 29.2031 75.8672 30.1406 76.7266C31.1042 77.5859 32.25 78.263 33.5781 78.7578C34.9323 79.2266 36.3516 79.6562 37.8359 80.0469C40.4661 80.6979 43.2526 81.375 46.1953 82.0781C49.1641 82.7812 52.0156 83.7969 54.75 85.125C57.4583 86.401 60.0104 87.9896 62.4062 89.8906C64.8281 91.7917 67.1458 93.5495 69.3594 95.1641C70.5833 96.0495 71.7943 96.8568 72.9922 97.5859C74.2161 98.3411 75.4531 98.8359 76.7031 99.0703C77.9792 99.3047 79.3073 99.0964 80.6875 98.4453Z" fill="#242424"/>
</svg>
